<svg class="w-3/4" viewBox="0 0 111 25" version="1.1" xmlns="http://www.w3.org/2000/svg" xmlns:xlink="http://www.w3.org/1999/xlink">
    <!-- Generator: Sketch 39.1 (31720) - http://www.bohemiancoding.com/sketch -->
    <title>Logos/logo small dark</title>
    <desc>Created with Sketch.</desc>
    <defs></defs>
    <g id="Symbols" stroke="none" stroke-width="1" fill="none" fill-rule="evenodd">
        <g id="Logos/logo-small-dark">
            <path d="M43.0791884,8.08109319 L41.1005505,8.08109319 L41.1005505,15.9104125 L43.0791884,15.9104125 C45.60986,15.9104125 47.0370844,14.3259122 47.0370844,11.9955503 C47.0370844,9.66559347 45.60986,8.08109319 43.0791884,8.08109319 M43.1935235,18.2035016 L39.8257039,18.2035016 C39.1217058,18.2035016 38.5508574,17.6442066 38.5508574,16.9544568 L38.5508574,7.01841249 C38.5508574,6.3288652 39.1217058,5.78800407 39.8257039,5.78800407 L43.1935235,5.78800407 C47.0749205,5.78800407 49.5673426,8.5097307 49.5673426,11.9955503 C49.5673426,15.4815724 47.0749205,18.2035016 43.1935235,18.2035016" id="Fill-1" fill="#383634"></path>
            <path d="M60.3114704,18.445775 C57.0199432,18.445775 54.8126352,16.357889 54.8126352,13.1325741 L54.8126352,6.86932119 C54.8126352,6.17957132 55.3646689,5.62027635 56.0684603,5.62027635 C56.7724584,5.62027635 57.3435136,6.17957132 57.3435136,6.86932119 L57.3435136,13.4497982 C57.3435136,15.0717739 58.4087113,16.1901613 60.3114704,16.1901613 C62.2142295,16.1901613 63.2794273,15.0717739 63.2794273,13.4497982 L63.2794273,6.86932119 C63.2794273,6.17957132 63.8504824,5.62027635 64.5542738,5.62027635 C65.2586854,5.62027635 65.8291203,6.17957132 65.8291203,6.86932119 L65.8291203,13.1325741 C65.8291203,16.357889 63.6029976,18.445775 60.3114704,18.445775" id="Fill-3" fill="#383634"></path>
            <path d="M79.5149886,8.11828499 L74.1257331,8.11828499 L74.1257331,10.7841024 L77.4172603,10.7841024 C78.0639875,10.7841024 78.5972066,11.305922 78.5972066,11.958399 C78.5972066,12.6110786 78.0639875,13.1140592 77.4172603,13.1140592 L74.1257331,13.1140592 L74.1257331,17.1219009 C74.1257331,17.8120559 73.5550914,18.3525119 72.8508865,18.3525119 C72.1468884,18.3525119 71.5948546,17.8120559 71.5948546,17.1219009 L71.5948546,7.01833147 C71.5948546,6.32878417 72.1468884,5.78792305 72.8508865,5.78792305 L79.5149886,5.78792305 C80.1809439,5.78792305 80.7135428,6.30994519 80.7135428,6.94378581 C80.7135428,7.59646542 80.1619226,8.11828499 79.5149886,8.11828499" id="Fill-5" fill="#383634"></path>
            <path d="M93.704903,8.11828499 L88.3158542,8.11828499 L88.3158542,10.7841024 L91.6071746,10.7841024 C92.2543153,10.7841024 92.787121,11.305922 92.787121,11.958399 C92.787121,12.6110786 92.2543153,13.1140592 91.6071746,13.1140592 L88.3158542,13.1140592 L88.3158542,17.1219009 C88.3158542,17.8120559 87.744799,18.3525119 87.0410077,18.3525119 C86.336596,18.3525119 85.7849758,17.8120559 85.7849758,17.1219009 L85.7849758,7.01833147 C85.7849758,6.32878417 86.336596,5.78792305 87.0410077,5.78792305 L93.704903,5.78792305 C94.3708583,5.78792305 94.9038707,6.30994519 94.9038707,6.94378581 C94.9038707,7.59646542 94.3518369,8.11828499 93.704903,8.11828499" id="Fill-7" fill="#383634"></path>
            <path d="M109.349168,5.62037764 C108.987762,5.62037764 108.644963,5.78790279 108.435728,6.06765156 L104.915737,10.7840821 L101.395953,6.06765156 C101.186511,5.78790279 100.843919,5.62037764 100.482513,5.62037764 C99.8355791,5.62037764 99.3220017,6.10512695 99.3220017,6.73876501 C99.3220017,6.98124095 99.3978805,7.24194817 99.5500516,7.42871744 L103.516838,12.6096403 L100.521796,16.5398979 C100.369419,16.7270723 100.292713,16.9699534 100.292713,17.2128344 C100.292713,17.8480931 100.807531,18.3524916 101.456119,18.3524916 C101.818352,18.3524916 102.161978,18.1843588 102.371626,17.9042049 L110.281629,7.42871744 C110.433387,7.24194817 110.509679,6.99987736 110.509679,6.75740142 C110.509679,6.1235608 109.996102,5.62037764 109.349168,5.62037764" id="Fill-9" fill="#383634"></path>
            <path d="M109.271635,18.3524106 C109.955371,18.3524106 110.509679,17.8093212 110.509679,17.1394232 C110.509679,16.4693226 109.955371,15.9260306 109.271635,15.9260306 C108.587485,15.9260306 108.033177,16.4693226 108.033177,17.1394232 C108.033177,17.8093212 108.587485,18.3524106 109.271635,18.3524106" id="Fill-11" fill="#383634"></path>
            <path d="M25.8797182,12.0330662 C25.8797182,14.7977376 24.7833006,17.1434948 22.7928777,18.6380542 C22.6620023,18.7363005 22.5061096,18.7881583 22.3423602,18.7881583 C22.146564,18.7881583 21.9627595,18.7136127 21.8244409,18.5780935 L15.6387681,12.5176129 C15.5066522,12.3883735 15.4338747,12.2161892 15.4338747,12.0330662 C15.4338747,11.8501457 15.5066522,11.6779615 15.6387681,11.5485194 L21.8244409,5.48803885 C21.9627595,5.35251971 22.146564,5.27797406 22.3423602,5.27797406 C22.5063163,5.27797406 22.6620023,5.3298319 22.7928777,5.42807821 C24.7833006,6.9228401 25.8797182,9.26859735 25.8797182,12.0330662 M17.8140293,4.33683518 L13.0657118,8.98925372 C12.9507565,9.10167991 12.8037542,9.18351807 12.6426927,9.2033699 C12.4224994,9.23051424 12.2101629,9.158602 12.0567512,9.00829527 L7.29106642,4.33825317 C7.08658649,4.13770916 7.2315212,3.79496121 7.52077036,3.79496121 L17.5843253,3.79354322 C17.8737812,3.79334065 18.0187159,4.13629117 17.8140293,4.33683518 M12.6426927,14.8627625 C12.803961,14.8826143 12.9507565,14.9644525 13.0657118,15.0770812 L17.8132023,19.7278792 C18.0178889,19.9282206 17.8729542,20.2711712 17.5834983,20.2711712 L7.51952983,20.2717789 C7.23007392,20.2719814 7.08513921,19.9290309 7.28982589,19.7284869 L12.056958,15.0578371 C12.2103696,14.9075304 12.4224994,14.8356181 12.6426927,14.8627625 M22.8009411,1.27276575 C22.7097625,1.22394645 22.6107272,1.18140681 22.5139662,1.14960336 C20.9903944,0.521232121 19.3249891,0.202589967 17.5636499,0.202589967 L2.30994371,0.202589967 C1.44881238,0.202589967 0.713180863,0.778900793 0.521106191,1.60437236 C0.382994371,2.19810418 0.584166229,2.84835295 1.04646867,3.30109625 L9.46426004,11.5485194 C9.73696886,11.8157089 9.73696886,12.2504235 9.46426004,12.5176129 L1.01359475,20.7970421 C0.404496811,21.3940151 0.300499437,22.3116559 0.760734334,23.0283475 C1.09174784,23.5434823 1.70332683,23.8635424 2.35708368,23.8635424 L17.5636499,23.8635424 C19.3113433,23.8635424 20.9626893,23.5505722 22.4724086,22.9335449 C22.5993557,22.8944489 22.7240285,22.8411731 22.8342285,22.7789842 C27.0371283,20.898327 29.5462976,16.8817748 29.5462976,12.0330662 C29.5462976,7.1663289 27.0249298,3.1443073 22.8009411,1.27276575" id="Fill-13" fill="#F15725"></path>
        </g>
    </g>
</svg>