<?xml version="1.0" encoding="UTF-8" standalone="no"?>
<svg width="116px" height="25px" viewBox="0 0 116 25" version="1.1" xmlns="http://www.w3.org/2000/svg" xmlns:xlink="http://www.w3.org/1999/xlink">
    <!-- Generator: Sketch 3.8.3 (29802) - http://www.bohemiancoding.com/sketch -->
    <title>Slice 1</title>
    <desc>Created with Sketch.</desc>
    <defs></defs>
    <g id="Page-1" stroke="none" stroke-width="1" fill="none" fill-rule="evenodd">
        <path d="M44.8464782,8.29316129 L42.7637015,8.29316129 L42.7637015,16.53455 L44.8464782,16.53455 C47.5103431,16.53455 49.0126846,14.866655 49.0126846,12.4136424 C49.0126846,9.96105631 47.5103431,8.29316129 44.8464782,8.29316129 M44.9668309,18.948328 L41.4217577,18.948328 C40.6807071,18.948328 40.079814,18.3595965 40.079814,17.633544 L40.079814,7.17455003 C40.079814,6.44871077 40.6807071,5.87938327 41.4217577,5.87938327 L44.9668309,5.87938327 C49.052512,5.87938327 51.6761142,8.74435867 51.6761142,12.4136424 C51.6761142,16.0831394 49.052512,18.948328 44.9668309,18.948328" id="Fill-1" fill="#FEFEFE"></path>
        <path d="M62.9857225,19.2033527 C59.520957,19.2033527 57.1974748,17.0055779 57.1974748,13.6105096 L57.1974748,7.01761181 C57.1974748,6.29155932 57.778563,5.70282777 58.519396,5.70282777 C59.2604467,5.70282777 59.8615574,6.29155932 59.8615574,7.01761181 L59.8615574,13.9444297 C59.8615574,15.6517726 60.9828182,16.8290224 62.9857225,16.8290224 C64.9886268,16.8290224 66.1098876,15.6517726 66.1098876,13.9444297 L66.1098876,7.01761181 C66.1098876,6.29155932 66.7109983,5.70282777 67.4518313,5.70282777 C68.1933172,5.70282777 68.793775,6.29155932 68.793775,7.01761181 L68.793775,13.6105096 C68.793775,17.0055779 66.4504879,19.2033527 62.9857225,19.2033527" id="Fill-3" fill="#FEFEFE"></path>
        <path d="M83.1999521,8.33231055 L77.5270515,8.33231055 L77.5270515,11.1384341 L80.991817,11.1384341 C81.6725825,11.1384341 82.2338658,11.6877179 82.2338658,12.3745358 C82.2338658,13.061567 81.6725825,13.5910202 80.991817,13.5910202 L77.5270515,13.5910202 L77.5270515,17.809801 C77.5270515,18.5362799 76.9263761,19.105181 76.1851078,19.105181 C75.4440572,19.105181 74.862969,18.5362799 74.862969,17.809801 L74.862969,7.17446473 C74.862969,6.44862548 75.4440572,5.87929798 76.1851078,5.87929798 L83.1999521,5.87929798 C83.9009577,5.87929798 84.4615881,6.42879497 84.4615881,7.09599563 C84.4615881,7.78302679 83.8809352,8.33231055 83.1999521,8.33231055" id="Fill-5" fill="#FEFEFE"></path>
        <path d="M98.1367041,8.33231055 L92.4640212,8.33231055 L92.4640212,11.1384341 L95.928569,11.1384341 C96.6097697,11.1384341 97.1706178,11.6877179 97.1706178,12.3745358 C97.1706178,13.061567 96.6097697,13.5910202 95.928569,13.5910202 L92.4640212,13.5910202 L92.4640212,17.809801 C92.4640212,18.5362799 91.8629105,19.105181 91.1220774,19.105181 C90.3805915,19.105181 89.7999386,18.5362799 89.7999386,17.809801 L89.7999386,7.17446473 C89.7999386,6.44862548 90.3805915,5.87929798 91.1220774,5.87929798 L98.1367041,5.87929798 C98.8377097,5.87929798 99.3987754,6.42879497 99.3987754,7.09599563 C99.3987754,7.78302679 98.8176872,8.33231055 98.1367041,8.33231055" id="Fill-7" fill="#FEFEFE"></path>
        <path d="M114.604351,5.70293439 C114.223924,5.70293439 113.863083,5.87927665 113.642835,6.17374904 L109.937582,11.1384128 L106.232546,6.17374904 C106.012081,5.87927665 105.651458,5.70293439 105.271031,5.70293439 C104.590047,5.70293439 104.04944,6.21319683 104.04944,6.88018425 C104.04944,7.13542209 104.129312,7.40985074 104.289492,7.60644997 L108.465057,13.060053 L105.312381,17.1971662 C105.151984,17.3941919 105.071241,17.6498562 105.071241,17.9055205 C105.071241,18.5742138 105.613154,19.1051597 106.295879,19.1051597 C106.677177,19.1051597 107.038888,18.9281777 107.259571,18.6332788 L115.58589,7.60644997 C115.745635,7.40985074 115.825942,7.15503937 115.825942,6.89980153 C115.825942,6.23260087 115.285334,5.70293439 114.604351,5.70293439" id="Fill-9" fill="#FEFEFE"></path>
        <path d="M114.522738,19.1050744 C115.24246,19.1050744 115.825942,18.5334013 115.825942,17.8282455 C115.825942,17.1228764 115.24246,16.5509902 114.522738,16.5509902 C113.80258,16.5509902 113.219098,17.1228764 113.219098,17.8282455 C113.219098,18.5334013 113.80258,19.1050744 114.522738,19.1050744" id="Fill-11" fill="#FEFEFE"></path>
        <path d="M26.7417727,12.4531329 C26.7417727,15.3633133 25.5876489,17.8325314 23.4924669,19.4057518 C23.3547033,19.5091689 23.1906058,19.5637562 23.018238,19.5637562 C22.8121367,19.5637562 22.6186583,19.485287 22.4730598,19.3426353 L15.9618253,12.9631821 C15.8227559,12.8271405 15.746148,12.6458939 15.746148,12.4531329 C15.746148,12.260585 15.8227559,12.0793384 15.9618253,11.9430837 L22.4730598,5.5636304 C22.6186583,5.42097868 22.8121367,5.34250957 23.018238,5.34250957 C23.1908234,5.34250957 23.3547033,5.39709677 23.4924669,5.50051394 C25.5876489,7.07394751 26.7417727,9.54316566 26.7417727,12.4531329 M18.2515739,4.35183707 L13.253345,9.24911974 C13.1323394,9.36746309 12.9776001,9.45360853 12.8080617,9.47450519 C12.5762793,9.50307818 12.3527671,9.42738108 12.1912812,9.26916348 L7.17477087,4.35332969 C6.95952885,4.14223073 7.1120917,3.78144341 7.41656449,3.78144341 L18.0097803,3.77995079 C18.3144707,3.77973756 18.4670335,4.14073811 18.2515739,4.35183707 M12.8080617,15.4317605 C12.9778178,15.4526572 13.1323394,15.5388026 13.253345,15.6573592 L18.2507033,20.552936 C18.466163,20.7638218 18.3136001,21.1248223 18.0089097,21.1248223 L7.41525868,21.125462 C7.11056824,21.1256752 6.95800539,20.7646747 7.17346506,20.5535757 L12.1914988,15.6371022 C12.3529848,15.4788846 12.5762793,15.4031875 12.8080617,15.4317605 M23.5009547,1.12650082 C23.4049773,1.07511208 23.3007296,1.03033352 23.1988759,0.996856206 C21.5951161,0.335412794 19.8420579,0 17.9880167,0 L1.93148382,0 C1.02502978,0 0.250680815,0.606642974 0.0484969504,1.47556042 C-0.0968839127,2.10054128 0.114875937,2.78501367 0.601510084,3.26158557 L9.4623431,11.9430837 C9.74940502,12.2243357 9.74940502,12.68193 9.4623431,12.9631821 L0.566905956,21.6783707 C-0.0742497663,22.3067633 -0.183720686,23.2727009 0.3007371,24.0271132 C0.649172373,24.5693603 1.29293973,24.9062657 1.98110483,24.9062657 L17.9880167,24.9062657 C19.8276939,24.9062657 21.5659529,24.5768234 23.1551311,23.9273209 C23.2887596,23.8861673 23.4199941,23.8300875 23.5359941,23.7646255 C27.9600992,21.7849863 30.60133,17.5570366 30.60133,12.4531329 C30.60133,7.3302515 27.9472587,3.09654456 23.5009547,1.12650082" id="Fill-13" fill="#F15725"></path>
    </g>
</svg>