<svg viewBox="0 0 1500 466" fill="none" xmlns="http://www.w3.org/2000/svg">
<path fill-rule="evenodd" clip-rule="evenodd" d="M30.3289 127.729C44.1875 74.6281 74.3051 30.0038 120.282 11.9261C164.107 -7.19207 223.187 -0.972362 269.669 14.0758C316.137 29.3535 346.971 53.8039 365.238 87.3888C383.414 120.859 389.574 164.909 379.965 212.043C370.356 259.552 344.526 308.621 303.146 344.263C261.849 380.166 202.95 403.018 151.048 383.005C98.0746 363.267 62.2279 319.744 41.3041 274.875C20.9766 229.126 15.806 183.278 30.3289 127.729Z" fill="#F25022"/>
<path fill-rule="evenodd" clip-rule="evenodd" d="M94.8742 303.357C80.6684 250.348 84.7445 196.436 115.64 157.481C144.164 118.717 198.399 94.1593 246.074 83.6401C293.854 73.3275 332.622 78.874 365.012 98.7036C397.265 118.48 424.334 153.51 439.264 199.19C454.376 245.199 456.21 300.787 437.958 352.625C419.91 404.64 380.169 454.275 325.353 463.249C269.737 472.995 217.217 453.472 176.962 425.219C136.797 395.911 109.691 358.822 94.8742 303.357Z" fill="#EF03E7"/>
<path fill-rule="evenodd" clip-rule="evenodd" d="M165.3 79.7383C218.138 66.3962 271.496 71.6825 309.449 103.967C347.266 133.826 370.462 189.566 379.874 238.329C389.091 287.2 397.047 320.456 376.704 353.008C356.422 385.43 298.398 416.719 252.799 430.949C206.876 445.37 160.197 447.68 109.201 428.004C58.0236 408.534 9.66937 367.023 1.93994 311.023C-6.55186 254.196 13.9115 201.134 42.7685 160.748C72.6673 120.461 110.009 93.6543 165.3 79.7383Z" fill="#FFB900"/>
<path fill-rule="evenodd" clip-rule="evenodd" d="M290.125 406.445C235.755 415.35 192.368 397.402 152.875 367.474C113.654 339.949 96.4518 296.074 84.4047 248.152C72.5539 200.116 76.6677 160.656 95.0855 127.155C113.45 93.792 147.04 65.1492 191.568 48.4256C236.404 31.5031 291.152 27.6933 342.91 44.3633C394.835 60.8191 445.167 99.3308 455.931 154.535C467.502 210.528 450.088 264.402 423.639 306.165C396.148 347.897 346.096 397.326 290.125 406.445Z" fill="#00A4EF"/>
<path fill-rule="evenodd" clip-rule="evenodd" d="M241.801 50.3382C295.998 50.1546 346.322 68.0946 375.451 108.419C405.01 146.373 414.377 205.823 412.068 255.221C409.531 304.665 395.809 341.593 368.529 368.171C341.333 394.625 299.349 411.64 251.946 414.432C204.188 417.324 150.739 404.731 106.053 373.449C61.141 342.32 24.1243 290.573 29.7628 234.588C34.8654 177.617 67.0588 131.256 104.415 99.1625C142.745 67.4213 185.106 50.4835 241.801 50.3382Z" fill="#03F119"/>
<path fill-rule="evenodd" clip-rule="evenodd" d="M334.668 233.058V233.066C334.668 254.143 317.805 271.233 297.009 271.241H268.469V299.838C268.469 321.182 251.395 338.495 230.328 338.495H230.32C209.261 338.495 192.179 321.19 192.179 299.838C192.179 299.83 192.179 299.83 192.179 299.83V270.912H162.665C141.862 270.904 124.999 253.821 124.999 232.737V232.729C124.999 211.645 141.862 194.554 162.665 194.554H192.013V165.942C192.021 144.59 209.095 127.285 230.162 127.285H230.169C251.237 127.285 268.311 144.59 268.311 165.942V194.876H297.002C317.805 194.883 334.668 211.974 334.668 233.058Z" fill="white"/>
<path d="M596.441 168.219V212.04H692.273C693.576 212.04 694.641 213.108 694.641 214.44V251.543C694.641 252.864 693.576 253.943 692.273 253.943H596.441V337.268C596.441 338.588 595.376 339.668 594.073 339.668H556.321C555.006 339.668 553.953 338.588 553.953 337.268V128.716C553.953 127.384 555.006 126.316 556.321 126.316H692.273C693.576 126.316 694.641 127.384 694.641 128.716V165.819C694.641 167.14 693.576 168.219 692.273 168.219H596.441Z" fill="white"/>
<path d="M753.083 128.727V337.267C753.083 338.588 752.018 339.667 750.715 339.667H714.39C713.075 339.667 712.022 338.588 712.022 337.267V128.727C712.022 127.395 713.075 126.327 714.39 126.327H750.715C752.018 126.327 753.083 127.395 753.083 128.727Z" fill="white"/>
<path d="M811.865 179.048V337.256C811.865 338.577 810.8 339.656 809.497 339.656H773.172C771.857 339.656 770.804 338.577 770.804 337.256V179.048C770.804 177.716 771.857 176.648 773.172 176.648H809.497C810.8 176.659 811.865 177.716 811.865 179.048Z" fill="white"/>
<path d="M812.941 147.641C812.941 153.463 810.992 158.504 807.151 162.615C803.22 166.818 797.77 168.965 790.949 168.965C784.037 168.965 778.587 166.99 774.746 163.097C770.905 159.204 768.968 154.002 768.968 147.652C768.968 141.841 770.917 136.789 774.769 132.678C778.701 128.475 784.151 126.339 790.949 126.339C797.872 126.339 803.321 128.302 807.162 132.195C811.003 136.077 812.941 141.267 812.941 147.641Z" fill="white"/>
<path d="M978.794 214.98C975.565 208.618 971.633 202.842 967.101 197.823C962.558 192.794 957.368 188.43 951.669 184.87C940.169 177.693 927.184 174.064 913.09 174.064C902.326 174.064 891.947 176.717 882.226 181.953C877.977 184.238 874.136 186.776 870.759 189.532V178.772C870.759 177.44 869.694 176.372 868.391 176.372H831.783C830.469 176.372 829.415 177.44 829.415 178.772V400.553C829.415 401.874 830.469 402.953 831.783 402.953H868.391C869.694 402.953 870.759 401.874 870.759 400.553V327.323C874.555 330.228 878.781 332.846 883.37 335.166C892.763 339.863 903.051 342.263 913.951 342.263C927.706 342.263 940.464 338.554 951.862 331.273C963.215 324.027 972.29 313.853 978.805 301.049C985.275 288.371 988.549 273.89 988.549 258.031C988.549 242.15 985.264 227.68 978.794 214.98ZM909.124 302.932C901.397 302.932 894.485 301.014 888.571 297.225C882.611 293.412 877.898 288.072 874.521 281.32C871.077 274.441 869.343 266.587 869.343 258.008C869.343 249.43 871.077 241.633 874.51 234.846C877.875 228.174 882.611 222.857 888.571 219.056C894.485 215.267 901.397 213.361 909.124 213.361C916.659 213.361 923.479 215.267 929.383 219.056C935.354 222.869 940.101 228.174 943.443 234.846C946.877 241.621 948.621 249.407 948.621 258.008C948.621 266.587 946.888 274.384 943.455 281.148C941.767 284.489 939.704 287.532 937.359 290.185C935.014 292.838 932.317 295.158 929.326 297.121C923.434 300.98 916.613 302.932 909.124 302.932Z" fill="white"/>
<path d="M1155.85 176.659H1119.53C1118.21 176.659 1117.16 177.727 1117.16 179.059V189.107C1113.55 186.214 1109.43 183.584 1104.92 181.207C1095.12 176.085 1084.32 173.501 1072.84 173.501C1058.4 173.501 1044.96 177.165 1032.92 184.411C1020.86 191.645 1011.26 201.866 1004.34 214.75C997.467 227.566 993.977 242.115 993.977 258.031C993.977 273.936 997.467 288.497 1004.34 301.301C1011.26 314.186 1020.91 324.394 1033.07 331.663C1045.2 338.887 1058.85 342.561 1073.67 342.561C1085.06 342.561 1095.98 339.576 1106.12 333.719C1110.24 331.33 1113.93 328.724 1117.15 325.933V327.943C1117.15 341.287 1113.72 351.266 1106.96 357.628C1100.1 364.116 1089.56 367.4 1075.66 367.4C1067.96 367.4 1060.1 366.125 1052.32 363.645C1044.58 361.176 1038.07 357.915 1033 353.964L1029.51 351.254C1029.09 350.933 1028.59 350.76 1028.08 350.76C1027.89 350.76 1027.71 350.772 1027.53 350.818C1026.82 350.99 1026.25 351.461 1025.94 352.127L1012.09 381.697C1011.62 382.696 1011.89 383.879 1012.72 384.579L1014.86 386.371C1021.86 392.204 1031.07 396.981 1042.23 400.541C1053.28 404.067 1064.52 405.858 1075.67 405.858C1099.31 405.858 1119.13 399.129 1134.55 385.877C1150.24 372.384 1158.22 351.714 1158.22 324.498V179.048C1158.22 177.716 1157.16 176.659 1155.85 176.659ZM1076.81 303.219C1068.88 303.219 1061.74 301.29 1055.64 297.477C1049.51 293.676 1044.59 288.267 1041.04 281.4C1037.44 274.453 1035.62 266.575 1035.62 258.008C1035.62 249.258 1037.43 241.346 1041.02 234.49C1044.58 227.692 1049.51 222.26 1055.69 218.344C1061.8 214.474 1068.9 212.511 1076.81 212.511C1084.95 212.511 1092.22 214.44 1098.44 218.264C1104.65 222.065 1109.53 227.462 1112.98 234.272C1116.5 241.219 1118.3 249.212 1118.3 258.008C1118.3 266.77 1116.51 274.694 1113 281.572C1111.29 284.926 1109.18 287.957 1106.75 290.61C1104.3 293.286 1101.51 295.582 1098.44 297.454C1092.23 301.278 1084.95 303.219 1076.81 303.219Z" fill="white"/>
<path d="M1278.16 180.966L1268.82 220.216C1268.65 220.928 1268.19 221.503 1267.55 221.813C1267.22 221.985 1266.86 222.065 1266.52 222.065C1266.18 222.065 1265.84 221.996 1265.52 221.836L1261.59 220.01C1257.47 218.08 1253.04 217.104 1248.46 217.104C1243.24 217.104 1238.09 218.494 1233.13 221.25C1228.16 224.017 1223.99 228.002 1220.76 233.055C1217.63 237.981 1216.05 243.758 1216.05 250.234V337.256C1216.05 338.577 1214.99 339.656 1213.68 339.656H1177.07C1175.76 339.656 1174.71 338.577 1174.71 337.256V179.048C1174.71 177.716 1175.76 176.648 1177.07 176.648H1213.68C1214.99 176.648 1216.05 177.716 1216.05 179.048V192.013C1219.01 188.889 1222.31 186.019 1225.91 183.469C1235.3 176.843 1245.27 173.49 1255.55 173.49C1263.55 173.49 1269.69 174.627 1274.36 176.993L1276.88 178.267C1277.9 178.761 1278.42 179.886 1278.16 180.966Z" fill="white"/>
<path d="M1328.45 147.641C1328.45 153.463 1326.5 158.504 1322.66 162.615C1318.73 166.818 1313.28 168.965 1306.46 168.965C1299.54 168.965 1294.09 166.99 1290.25 163.097C1286.41 159.204 1284.47 154.002 1284.47 147.652C1284.47 141.841 1286.42 136.789 1290.28 132.678C1294.21 128.475 1299.66 126.339 1306.46 126.339C1313.38 126.339 1318.83 128.302 1322.67 132.195C1326.51 136.077 1328.45 141.267 1328.45 147.641Z" fill="white"/>
<path d="M1326.48 179.048V337.256C1326.48 338.577 1325.41 339.656 1324.11 339.656H1287.78C1286.47 339.656 1285.42 338.577 1285.42 337.256V179.048C1285.42 177.716 1286.47 176.648 1287.78 176.648H1324.11C1325.41 176.659 1326.48 177.716 1326.48 179.048Z" fill="white"/>
<path d="M1497.59 126.327H1460.5C1459.17 126.327 1458.09 127.418 1458.09 128.773V189.027C1454.27 186.156 1450.02 183.584 1445.4 181.367C1435.85 176.785 1425.29 174.466 1414 174.466C1399.6 174.466 1386.3 178.221 1374.46 185.662C1362.69 193.046 1353.24 203.473 1346.38 216.622C1339.57 229.69 1336.12 244.527 1336.12 260.741C1336.12 277.163 1339.71 287.176 1346.38 299.946C1353.24 313.117 1362.8 323.544 1374.8 330.928C1386.8 338.347 1400.28 342.113 1414.88 342.113C1426.07 342.113 1436.63 339.449 1446.26 334.19C1450.59 331.824 1454.54 329.194 1458.09 326.323V336.739C1458.09 338.082 1459.17 339.185 1460.5 339.185H1497.59C1498.91 339.185 1500 338.082 1500 336.739V128.773C1500 127.418 1498.91 126.327 1497.59 126.327ZM1454.03 280.814C1450.67 287.98 1445.88 293.664 1439.8 297.695C1433.79 301.703 1426.76 303.747 1418.93 303.747C1411.26 303.747 1404.35 301.703 1398.36 297.707C1392.25 293.63 1387.4 287.934 1383.94 280.745C1380.27 273.143 1378.62 269.71 1378.62 260.73C1378.62 251.52 1380.41 243.137 1383.94 235.799C1387.41 228.622 1392.25 222.926 1398.34 218.872C1404.36 214.865 1411.27 212.832 1418.93 212.832C1426.76 212.832 1433.79 214.865 1439.79 218.872C1445.88 222.915 1450.67 228.587 1454.03 235.765C1457.49 243.126 1459.24 251.531 1459.24 260.73C1459.24 269.71 1457.61 273.155 1454.08 280.711L1454.03 280.814Z" fill="white"/>
</svg>
