<svg viewBox="0 0 270 31" fill="none" xmlns="http://www.w3.org/2000/svg">
<g clip-path="url(#clip0_500_382)">
<path d="M59.7439 9.6788C59.2865 8.46122 58.6227 7.36747 57.7697 6.43536C56.9167 5.49982 55.8573 4.74313 54.6225 4.18594C53.3843 3.62874 51.9776 3.34326 50.4401 3.34326C48.9027 3.34326 47.4959 3.6253 46.2577 4.18594C45.0195 4.74657 43.9601 5.50326 43.1106 6.43536C42.2576 7.3709 41.5937 8.46122 41.1363 9.6788C40.6788 10.8964 40.4449 12.1724 40.4449 13.4726C40.4449 14.7727 40.6788 16.0487 41.1363 17.2663C41.5937 18.4839 42.2576 19.5777 43.1106 20.5098C43.9635 21.4453 45.0229 22.202 46.2577 22.7592C47.4959 23.3164 48.9027 23.6019 50.4401 23.6019C51.9776 23.6019 53.3843 23.3198 54.6225 22.7592C55.8607 22.202 56.9201 21.4419 57.7697 20.5098C58.6227 19.5742 59.2865 18.4839 59.7439 17.2663C60.2014 16.0487 60.4353 14.7727 60.4353 13.4726C60.4353 12.1724 60.2014 10.8964 59.7439 9.6788ZM57.0233 13.4726C57.0233 14.3978 56.872 15.3058 56.5727 16.1657C56.2735 17.029 55.8332 17.8063 55.2623 18.4736C54.6913 19.1443 53.9931 19.6877 53.1848 20.0833C52.38 20.4822 51.4582 20.6852 50.4401 20.6852C49.422 20.6852 48.5002 20.4822 47.6954 20.0833C46.8906 19.6843 46.1923 19.1443 45.6214 18.4736C45.0504 17.8029 44.6102 17.0256 44.3109 16.1657C44.0117 15.3058 43.8604 14.3978 43.8604 13.4726C43.8604 12.5473 44.0117 11.6393 44.3109 10.7794C44.6102 9.91613 45.0504 9.14224 45.6214 8.47154C46.1923 7.80084 46.8906 7.2574 47.6954 6.86186C48.5037 6.46288 49.4255 6.25995 50.4401 6.25995C51.4548 6.25995 52.3765 6.46288 53.1848 6.86186C53.9931 7.26084 54.6913 7.80428 55.2623 8.47154C55.8332 9.14224 56.2735 9.91957 56.5727 10.7794C56.872 11.6428 57.0233 12.5473 57.0233 13.4726Z" fill="#122845"/>
<path d="M75.6 10.2358V22.5045C75.6 22.8656 75.3076 23.1614 74.943 23.1614H73.0788C72.7177 23.1614 72.4219 22.8691 72.4219 22.5045V21.2663C71.9954 22.0058 71.4003 22.563 70.6437 22.9413C69.887 23.3196 69.003 23.5088 67.9918 23.5088C66.9806 23.5088 66.1723 23.3437 65.5016 23.0135C64.8309 22.6833 64.3012 22.2362 63.9126 21.6721C63.5824 21.1665 63.3554 20.6059 63.2281 19.9799C63.1009 19.3574 63.0389 18.58 63.0389 17.6479V10.2324C63.0389 9.87124 63.3313 9.57544 63.6959 9.57544H65.5601C65.9212 9.57544 66.217 9.8678 66.217 10.2324V16.5989C66.217 17.1802 66.2652 17.727 66.3615 18.2292C66.4578 18.7348 66.6194 19.1682 66.843 19.5259C67.0666 19.887 67.3658 20.1725 67.7476 20.3858C68.1259 20.599 68.5972 20.7056 69.1612 20.7056C70.2688 20.7056 71.0908 20.3135 71.6239 19.5259C72.157 18.7382 72.4253 17.7649 72.4253 16.5989V10.2324C72.4253 9.87124 72.7177 9.57544 73.0823 9.57544H74.9465C75.3076 9.57544 75.6034 9.8678 75.6034 10.2324" fill="#122845"/>
<path d="M91.8413 23.1579H93.9084C94.2627 23.1579 94.5482 22.8725 94.5482 22.5182V15.2368H99.2912C99.6455 15.2368 99.9344 14.9479 99.9344 14.5936V12.8773C99.9344 12.523 99.6455 12.2341 99.2912 12.2341H94.5482V6.80661H102.321C102.676 6.80661 102.965 6.51769 102.965 6.16342V4.45056C102.965 4.09629 102.676 3.80737 102.321 3.80737H91.8413C91.487 3.80737 91.1981 4.09629 91.1981 4.45056V22.5113C91.1981 22.8656 91.4836 23.1511 91.8379 23.1511" fill="#122845"/>
<path d="M102.211 16.3721C102.211 17.342 102.38 18.2535 102.72 19.1099C103.061 19.9663 103.535 20.723 104.148 21.38C104.76 22.0403 105.493 22.5597 106.346 22.938C107.199 23.3164 108.141 23.5056 109.169 23.5056C109.964 23.5056 110.758 23.3129 111.543 22.9243C112.33 22.5356 112.936 22.0025 113.362 21.3215V22.5184C113.362 22.8692 113.648 23.1547 113.998 23.1547H115.897C116.248 23.1547 116.533 22.8692 116.533 22.5184V10.2222C116.533 9.87141 116.248 9.58594 115.897 9.58594H113.998C113.648 9.58594 113.362 9.87141 113.362 10.2222V11.4192C112.936 10.7382 112.327 10.205 111.543 9.81638C110.755 9.42772 109.964 9.23511 109.169 9.23511C108.141 9.23511 107.199 9.42428 106.346 9.80262C105.493 10.181 104.76 10.7003 104.148 11.3607C103.535 12.0211 103.061 12.7847 102.72 13.648C102.38 14.5113 102.211 15.4193 102.211 16.3721ZM105.661 14.7108C105.843 14.188 106.112 13.7305 106.463 13.3419C106.813 12.9532 107.23 12.6436 107.714 12.4098C108.199 12.1759 108.743 12.0589 109.345 12.0589C109.947 12.0589 110.497 12.1759 110.989 12.4098C111.484 12.6436 111.907 12.9532 112.255 13.3419C112.605 13.7305 112.874 14.188 113.07 14.7108C113.262 15.2336 113.362 15.7873 113.362 16.3721C113.362 16.9568 113.266 17.5071 113.07 18.0299C112.874 18.5527 112.605 19.0101 112.255 19.3988C111.904 19.7875 111.484 20.097 110.989 20.3309C110.494 20.5648 109.943 20.6817 109.345 20.6817C108.746 20.6817 108.199 20.5648 107.714 20.3309C107.23 20.097 106.813 19.7875 106.463 19.3988C106.112 19.0101 105.847 18.5527 105.661 18.0299C105.475 17.5071 105.386 16.9533 105.386 16.3721C105.386 15.7908 105.479 15.237 105.661 14.7108Z" fill="#122845"/>
<path d="M120.922 23.1581H122.821C123.172 23.1581 123.457 22.8726 123.457 22.5218V16.2585C123.457 15.4433 123.536 14.7692 123.691 14.2361C123.846 13.7029 124.056 13.2696 124.317 12.9394C124.578 12.6092 124.884 12.3753 125.235 12.2412C125.586 12.1036 125.964 12.0382 126.37 12.0382C127.261 12.0382 127.897 12.3478 128.276 12.9703C128.654 13.5929 128.843 14.4459 128.843 15.5328V22.5252C128.843 22.8761 129.129 23.1615 129.48 23.1615H131.378C131.729 23.1615 132.015 22.8761 132.015 22.5252V16.2619C132.015 15.4468 132.087 14.7726 132.235 14.2395C132.379 13.7064 132.585 13.273 132.847 12.9428C133.108 12.6126 133.411 12.3787 133.748 12.2446C134.089 12.107 134.463 12.0417 134.869 12.0417C135.764 12.0417 136.407 12.3581 136.806 12.9875C137.205 13.6204 137.401 14.4768 137.401 15.5637V22.5287C137.401 22.8795 137.686 23.165 138.037 23.165H139.936C140.287 23.165 140.572 22.8795 140.572 22.5287V14.5766C140.572 13.9368 140.51 13.3005 140.383 12.6677C140.256 12.0382 140.015 11.4707 139.654 10.9651C139.292 10.4595 138.794 10.0468 138.154 9.72689C137.514 9.40702 136.689 9.24536 135.678 9.24536C134.666 9.24536 133.851 9.47925 133.115 9.94358C132.376 10.4113 131.843 10.9823 131.512 11.6633C131.22 10.9823 130.745 10.4113 130.085 9.94358C129.425 9.47925 128.475 9.24536 127.23 9.24536C126.336 9.24536 125.555 9.46205 124.884 9.89886C124.214 10.3357 123.736 10.8654 123.443 11.4845V10.2291C123.443 9.87823 123.158 9.59275 122.807 9.59275H120.908C120.558 9.59275 120.272 9.87823 120.272 10.2291V22.5252C120.272 22.8761 120.558 23.1615 120.908 23.1615" fill="#122845"/>
<path d="M152.173 23.1582H154.069C154.423 23.1582 154.708 22.8727 154.708 22.5184V4.45078C154.708 4.09651 154.423 3.81104 154.069 3.81104H152.173C151.819 3.81104 151.534 4.09651 151.534 4.45078V22.5184C151.534 22.8727 151.819 23.1582 152.173 23.1582Z" fill="#122845"/>
<path d="M179.087 22.5666C179.218 22.9208 179.555 23.1582 179.93 23.1582H181.075C181.461 23.1582 181.801 22.914 181.925 22.5494L186.434 9.31766L190.916 22.5459C191.04 22.9105 191.38 23.1547 191.765 23.1547H192.911C193.289 23.1547 193.626 22.9174 193.753 22.5631L200.275 4.66059C200.426 4.24785 200.12 3.81104 199.68 3.81104H197.698C197.317 3.81104 196.976 4.0518 196.849 4.41295L192.371 17.2182L187.865 4.41295C187.738 4.05524 187.401 3.81447 187.019 3.81447H185.815C185.433 3.81447 185.093 4.05524 184.969 4.41295L180.463 17.2182L175.985 4.41295C175.858 4.0518 175.517 3.81104 175.135 3.81104H173.154C172.714 3.81104 172.408 4.24785 172.559 4.66059L179.08 22.5631L179.087 22.5666Z" fill="#122845"/>
<path d="M209.186 12.4095H214.892L208.688 22.4838C208.509 22.7796 208.722 23.1545 209.069 23.1545H219.436C219.79 23.1545 220.079 22.8656 220.079 22.5113V20.9704C220.079 20.6162 219.79 20.3272 219.436 20.3272H213.585L219.766 10.253C219.942 9.95718 219.728 9.58228 219.384 9.58228H209.19C208.836 9.58228 208.547 9.87119 208.547 10.2255V11.7664C208.547 12.1206 208.836 12.4095 209.19 12.4095" fill="#122845"/>
<path d="M223.381 21.3799C223.993 22.0403 224.726 22.5597 225.579 22.938C226.432 23.3164 227.374 23.5055 228.403 23.5055C229.197 23.5055 229.988 23.3129 230.776 22.9243C231.564 22.5356 232.169 22.0025 232.596 21.3215V22.515C232.596 22.8692 232.884 23.1581 233.239 23.1581H235.127C235.481 23.1581 235.77 22.8692 235.77 22.515V10.2291C235.77 9.87483 235.481 9.58591 235.127 9.58591H233.239C232.884 9.58591 232.596 9.87483 232.596 10.2291V11.4226C232.169 10.7416 231.56 10.2085 230.776 9.8198C229.988 9.43114 229.197 9.23853 228.403 9.23853C227.374 9.23853 226.432 9.4277 225.579 9.80604C224.723 10.1844 223.993 10.7037 223.381 11.3641C222.769 12.0245 222.294 12.7881 221.954 13.6514C221.613 14.5147 221.445 15.4227 221.445 16.3755C221.445 17.3282 221.613 18.2569 221.954 19.1133C222.294 19.9697 222.769 20.7264 223.381 21.3834M224.895 14.7142C225.077 14.1914 225.345 13.7339 225.696 13.3453C226.047 12.9566 226.463 12.6471 226.948 12.4132C227.433 12.1793 227.976 12.0623 228.578 12.0623C229.18 12.0623 229.73 12.1793 230.222 12.4132C230.718 12.6471 231.141 12.9566 231.488 13.3453C231.839 13.7339 232.111 14.1914 232.303 14.7142C232.496 15.237 232.596 15.7908 232.596 16.3755C232.596 16.9602 232.499 17.5105 232.303 18.0333C232.107 18.5561 231.839 19.0136 231.488 19.4022C231.141 19.7909 230.718 20.1004 230.222 20.3343C229.727 20.5682 229.18 20.6852 228.578 20.6852C227.976 20.6852 227.433 20.5682 226.948 20.3343C226.463 20.1004 226.047 19.7909 225.696 19.4022C225.345 19.0136 225.08 18.5561 224.895 18.0333C224.709 17.5105 224.616 16.9567 224.616 16.3755C224.616 15.7942 224.709 15.2404 224.895 14.7142Z" fill="#122845"/>
<path d="M251.251 21.38C251.864 22.0403 252.596 22.5597 253.449 22.938C254.302 23.3164 255.245 23.5056 256.273 23.5056C257.068 23.5056 257.859 23.3129 258.646 22.9243C259.434 22.5356 260.039 22.0025 260.466 21.3215V22.515C260.466 22.8693 260.755 23.1582 261.109 23.1582H262.997C263.351 23.1582 263.64 22.8693 263.64 22.515V4.45422C263.64 4.09995 263.351 3.81104 262.997 3.81104H261.109C260.755 3.81104 260.466 4.09995 260.466 4.45422V11.4226C260.039 10.7416 259.43 10.2085 258.646 9.81982C257.859 9.43116 257.068 9.23855 256.273 9.23855C255.245 9.23855 254.302 9.42772 253.449 9.80607C252.593 10.1844 251.864 10.7038 251.251 11.3642C250.639 12.0245 250.164 12.7881 249.824 13.6514C249.483 14.5147 249.315 15.4228 249.315 16.3755C249.315 17.3282 249.483 18.2569 249.824 19.1133C250.164 19.9698 250.639 20.7264 251.251 21.3834M252.765 14.7142C252.947 14.1914 253.215 13.734 253.566 13.3453C253.917 12.9566 254.333 12.6471 254.818 12.4132C255.303 12.1793 255.846 12.0624 256.448 12.0624C257.05 12.0624 257.601 12.1793 258.092 12.4132C258.588 12.6471 259.011 12.9566 259.358 13.3453C259.709 13.734 259.977 14.1914 260.173 14.7142C260.366 15.237 260.466 15.7908 260.466 16.3755C260.466 16.9602 260.369 17.5105 260.173 18.0333C259.977 18.5561 259.709 19.0136 259.358 19.4022C259.007 19.7909 258.588 20.1005 258.092 20.3343C257.597 20.5682 257.05 20.6852 256.448 20.6852C255.846 20.6852 255.303 20.5682 254.818 20.3343C254.333 20.1005 253.917 19.7909 253.566 19.4022C253.215 19.0136 252.95 18.5561 252.765 18.0333C252.579 17.5105 252.486 16.9568 252.486 16.3755C252.486 15.7942 252.579 15.2405 252.765 14.7142Z" fill="#122845"/>
<path d="M204.959 9.58594H203.071C202.717 9.58594 202.428 9.87486 202.428 10.2291V22.515C202.428 22.8693 202.717 23.1582 203.071 23.1582H204.959C205.313 23.1582 205.602 22.8693 205.602 22.515V10.2291C205.602 9.87486 205.313 9.58594 204.959 9.58594Z" fill="#122845"/>
<path d="M204.013 7.50511C205.08 7.50511 205.943 6.64179 205.943 5.57555C205.943 4.50931 205.08 3.646 204.013 3.646C202.947 3.646 202.084 4.50931 202.084 5.57555C202.084 6.64179 202.947 7.50511 204.013 7.50511Z" fill="#122845"/>
<path d="M146.904 9.58594H145.009C144.655 9.58594 144.369 9.87142 144.369 10.2257V22.5184C144.369 22.8727 144.655 23.1582 145.009 23.1582H146.904C147.258 23.1582 147.544 22.8727 147.544 22.5184V10.2257C147.544 9.87142 147.258 9.58594 146.904 9.58594Z" fill="#122845"/>
<path d="M145.958 7.50511C147.024 7.50511 147.888 6.64179 147.888 5.57555C147.888 4.50931 147.024 3.646 145.958 3.646C144.892 3.646 144.029 4.50931 144.029 5.57555C144.029 6.64179 144.892 7.50511 145.958 7.50511Z" fill="#122845"/>
<path d="M171.369 24.3792V10.2257C171.369 9.87142 171.084 9.58594 170.729 9.58594H168.834C168.48 9.58594 168.195 9.87142 168.195 10.2257V16.6059C168.195 17.7719 167.926 18.7453 167.393 19.5329C166.86 20.3206 166.038 20.7127 164.934 20.7127C164.37 20.7127 163.899 20.6061 163.52 20.3928C163.142 20.1796 162.839 19.8941 162.619 19.5329C162.396 19.1752 162.237 18.7419 162.138 18.2363C162.041 17.7306 161.993 17.1872 161.993 16.6059V10.2257C161.993 9.87142 161.708 9.58594 161.353 9.58594H159.458C159.104 9.58594 158.818 9.87142 158.818 10.2257V17.6515C158.818 18.5836 158.88 19.361 159.008 19.9801C159.135 20.6026 159.362 21.1633 159.692 21.6689C160.081 22.2329 160.61 22.6801 161.278 23.0068C161.948 23.337 162.777 23.5021 163.768 23.5021C164.758 23.5021 165.66 23.3129 166.42 22.9346C167.176 22.5563 167.768 21.9991 168.195 21.2596V24.3757C168.195 25.0155 168.112 25.5417 167.947 25.9476C167.782 26.3569 167.555 26.6871 167.262 26.9382C166.97 27.1893 166.623 27.3647 166.213 27.461C165.873 27.5435 165.498 27.5814 165.102 27.5951C165.034 27.602 164.958 27.6054 164.875 27.6054C164.765 27.6054 164.655 27.602 164.549 27.5917C163.541 27.5263 162.863 27.1652 162.437 26.8178C162.206 26.6286 161.869 26.6389 161.639 26.8315L160.559 27.7258C160.273 27.9597 160.246 28.3896 160.5 28.6579C161.233 29.4318 162.55 30.2882 164.82 30.2882C166.956 30.2882 168.576 29.8033 169.684 28.8333C170.809 27.8256 171.373 26.3397 171.373 24.3792" fill="#122845"/>
<path d="M240.407 23.1546H242.295C242.649 23.1546 242.938 22.8657 242.938 22.5114V17.3006C242.938 15.5912 243.296 14.3426 244.015 13.5584C244.703 12.8052 245.686 12.4165 246.959 12.3856C247.158 12.3856 247.344 12.3993 247.451 12.4096C247.54 12.42 247.636 12.4268 247.74 12.4372C248.084 12.475 248.386 12.2033 248.386 11.8559V10.0501C248.386 9.76467 248.18 9.5239 247.898 9.47231C247.671 9.43104 247.416 9.4104 247.134 9.4104C246.687 9.4104 246.247 9.47231 245.81 9.59957C245.373 9.72683 244.964 9.90225 244.586 10.1258C244.207 10.3494 243.877 10.6005 243.595 10.8825C243.313 11.1645 243.093 11.4603 242.938 11.7699V10.2221C242.938 9.87129 242.653 9.58581 242.302 9.58581H240.403C240.052 9.58581 239.767 9.87129 239.767 10.2221V22.5114C239.767 22.8657 240.056 23.1546 240.41 23.1546" fill="#122845"/>
<path d="M79.9096 23.1546H81.7979C82.1522 23.1546 82.4411 22.8657 82.4411 22.5114V17.3006C82.4411 15.5912 82.7988 14.3426 83.5177 13.5584C84.2056 12.8052 85.1893 12.4165 86.4619 12.3856C86.6614 12.3856 86.8471 12.3993 86.9537 12.4096C87.0431 12.42 87.1394 12.4268 87.2426 12.4372C87.5866 12.475 87.8893 12.2033 87.8893 11.8559V10.0501C87.8893 9.76467 87.6829 9.5239 87.4008 9.47231C87.1738 9.43104 86.9193 9.4104 86.6373 9.4104C86.1902 9.4104 85.7499 9.47231 85.3131 9.59957C84.8763 9.72683 84.467 9.90225 84.0886 10.1258C83.7103 10.3494 83.3801 10.6005 83.0981 10.8825C82.816 11.1645 82.5959 11.4603 82.4411 11.7699V10.2221C82.4411 9.87129 82.1556 9.58581 81.8048 9.58581H79.9062C79.5554 9.58581 79.2699 9.87129 79.2699 10.2221V22.5114C79.2699 22.8657 79.5588 23.1546 79.9131 23.1546" fill="#122845"/>
<path d="M269.281 4.23393C269.12 4.05507 268.92 3.91405 268.683 3.80399C268.445 3.69737 268.181 3.64233 267.885 3.64233C267.589 3.64233 267.324 3.69737 267.087 3.80399C266.849 3.91061 266.65 4.05507 266.488 4.23393C266.327 4.41278 266.199 4.61915 266.113 4.85303C266.027 5.08692 265.983 5.32768 265.983 5.57533C265.983 5.82297 266.027 6.06374 266.113 6.29762C266.203 6.53151 266.327 6.73788 266.488 6.91329C266.65 7.09214 266.849 7.2366 267.087 7.34323C267.324 7.44985 267.589 7.50488 267.885 7.50488C268.181 7.50488 268.445 7.44985 268.683 7.34323C268.92 7.2366 269.12 7.09214 269.281 6.91329C269.446 6.73444 269.57 6.52807 269.656 6.29762C269.742 6.06374 269.787 5.82297 269.787 5.57533C269.787 5.32768 269.742 5.08692 269.656 4.85303C269.567 4.61915 269.443 4.41278 269.281 4.23393ZM269.309 6.18412C269.24 6.38017 269.137 6.55558 269.006 6.70348C268.875 6.85482 268.714 6.9752 268.525 7.06463C268.335 7.15405 268.122 7.20221 267.885 7.20221C267.647 7.20221 267.434 7.15749 267.242 7.06463C267.052 6.9752 266.891 6.85138 266.76 6.70348C266.629 6.55214 266.53 6.38017 266.457 6.18412C266.385 5.98807 266.354 5.78514 266.354 5.57533C266.354 5.36552 266.389 5.16259 266.457 4.96654C266.526 4.77049 266.629 4.59851 266.76 4.44717C266.891 4.29584 267.052 4.17545 267.242 4.08259C267.431 3.99316 267.644 3.94501 267.885 3.94501C268.126 3.94501 268.335 3.98972 268.525 4.08259C268.714 4.17545 268.875 4.29584 269.006 4.44717C269.137 4.59851 269.236 4.77049 269.309 4.96654C269.377 5.16259 269.415 5.36552 269.415 5.57533C269.415 5.78514 269.381 5.98807 269.309 6.18412Z" fill="#122845"/>
<path d="M268.538 5.64768C268.614 5.53761 268.652 5.40691 268.652 5.26589C268.652 5.17647 268.635 5.09048 268.604 5.00793C268.573 4.92539 268.528 4.85659 268.469 4.79468C268.411 4.73277 268.342 4.68462 268.26 4.65023C268.177 4.61583 268.084 4.59863 267.988 4.59863H267.231V6.54882H267.534V5.92628H267.909L268.297 6.54882H268.638L268.222 5.88156C268.359 5.83685 268.466 5.75774 268.542 5.64768M268.236 5.54449C268.167 5.6236 268.077 5.66144 267.964 5.66144H267.537V4.86003H267.964C268.077 4.86003 268.17 4.90131 268.236 4.98042C268.301 5.05952 268.335 5.15583 268.335 5.26245C268.335 5.36908 268.301 5.46539 268.236 5.54105" fill="#122845"/>
<path d="M23.6602 12.2858L33.7001 6.48679L33.3802 5.93303C33.1738 5.57532 32.7164 5.4515 32.3587 5.66131L24.0042 10.4835V0.839142C24.0042 0.426403 23.6705 0.0927734 23.2578 0.0927734H22.618V11.6873C22.618 12.2204 23.1959 12.554 23.6568 12.2858" fill="#7FC8E5"/>
<path d="M24.1004 14.2461L34.1403 20.0451L34.4602 19.4914C34.6665 19.1337 34.5427 18.6762 34.1884 18.4698L25.8339 13.6477L34.1884 8.82551C34.5461 8.61914 34.6665 8.16169 34.4636 7.80742L34.1437 7.25366L24.1038 13.0526C23.643 13.3175 23.643 13.9847 24.1038 14.2496" fill="#7FC8E5"/>
<path d="M20.3583 0.839142V10.4869L12.0038 5.66475C11.646 5.45838 11.1886 5.5822 10.9822 5.93647L10.6624 6.49023L20.7022 12.2892C21.1631 12.554 21.741 12.2239 21.741 11.6907V0.0927734H21.1012C20.6885 0.0927734 20.3548 0.426403 20.3548 0.839142" fill="#7FC8E5"/>
<path d="M22.7006 15.4816V27.0761H23.3403C23.753 27.0761 24.0867 26.7425 24.0867 26.3297V16.6854L32.4412 21.5075C32.7989 21.7139 33.2564 21.5901 33.4627 21.2358L33.7826 20.6821L23.7393 14.8831C23.2784 14.6182 22.7006 14.9484 22.7006 15.4816Z" fill="#7FC8E5"/>
<path d="M20.2654 13.0458L10.2256 7.24683L9.90569 7.80058C9.69932 8.15829 9.82314 8.61574 10.1774 8.81867L18.5319 13.6408L0.698173 23.9318C0.340466 24.1382 0.220085 24.5956 0.426454 24.9533L0.746325 25.5071L20.2689 14.2393C20.7298 13.9745 20.7298 13.3072 20.2689 13.0389" fill="#122845"/>
<path d="M20.7057 14.8811L1.18311 26.1489L1.50298 26.7026C1.70935 27.0603 2.1668 27.1807 2.52451 26.9778L20.3583 16.6868V26.3311C20.3583 26.7439 20.6919 27.0775 21.1046 27.0775H21.7444V15.483C21.7444 14.9499 21.1665 14.6162 20.7057 14.8845" fill="#122845"/>
</g>
<defs>
<clipPath id="clip0_500_382">
<rect width="270" height="30.6115" fill="white"/>
</clipPath>
</defs>
</svg>
