<svg class="w-1/2" xmlns="http://www.w3.org/2000/svg" viewBox="0 0 312.64 232.1"><path d="M312.64 153.61a3.88 3.88 0 11-3.88-3.88 3.9 3.9 0 013.88 3.88zm-7.3 0a3.42 3.42 0 103.42-3.42 3.43 3.43 0 00-3.42 3.42zm2-2.12h1.48c.31 0 1.42 0 1.42 1a1 1 0 01-.78 1c.43.1.58.29.64.8a6 6 0 00.25 1.31h-.6a5.28 5.28 0 01-.2-1.09c-.06-.64-.23-.8-.9-.8h-.72v1.89h-.58zm.58 1.79h.9c.29 0 .82 0 .82-.64s-.51-.66-.82-.66h-.9z" fill="#7f7f7f"/><path d="M15.32 175.25h.19c2.31-5.14 5.63-9.55 13-9.55 10.8 0 19.48 10.75 19.48 22.23 0 12.13-8.31 23.15-19.38 23.15-6.55 0-9.6-2.21-12.37-7.44h-.19v21.48c0 2.94 1.66 3.86 8.31 3.86v3.12H0v-3.12c5.72 0 7.38-.92 7.38-3.86v-50.79c0-2.94-1.66-3.86-7-3.86v-3.12l15-.55zm.74 13.41v2.48c0 14 7.48 16.81 10.52 16.81 8.68 0 12-5.7 12-19.29 0-11.57-3.32-19.84-11.26-19.84-7.01-.02-11.26 8.27-11.26 19.84zM55.52 209.97v-3.17c5.35 0 7-.92 7-3.86V148.9c0-2.94-1.66-3.86-7-3.86v-3.12l15.69-.55v61.62c0 2.94 1.66 3.86 7 3.86v3.12zM132.83 199.31c0 6-3 11.21-9.51 11.21-5.44 0-6.74-3.49-7.48-8.27h-.19c-2.58 6.8-8 8.82-14.86 8.82-6.55 0-13-3.4-13-10.56 0-10.57 19.48-14.79 27.32-17.45v-8.54c0-4.59-6-5.7-9.51-5.7a15.2 15.2 0 00-8.68 2.3 4.64 4.64 0 014 4.87 5.355 5.355 0 01-10.71 0c0-5.6 7.29-10.29 15.69-10.29 12 0 17.91 2.94 17.91 12.68v22.22c0 4.59 1.11 5.14 2.86 5.14 3 0 3.6-4.23 3.6-6.43zM115.11 186c-6.46 1.56-17.35 6.15-17.35 14.15 0 4.13 2.13 7.07 6.46 7.07 5.81 0 10.89-5.42 10.89-13.23zM172.31 210.52v-8.63h-.18c-3.32 5.69-7.75 9.19-14.12 9.19-8.31 0-13.76-5.7-13.76-16.54V173.8c0-2.94-1.66-3.86-6.55-3.86v-3.14h15.23v31.78c0 5.15 2 8.82 6.92 8.82 7.57 0 10.89-7 11.72-13v-20.6c0-2.94-1.66-3.86-7.2-3.86v-3.14h15.88v36.19c0 2.94 1.66 3.86 6.46 3.86v3.12zM224.82 148.9c0-2.94-1.66-3.86-7-3.86v-3.12l15.69-.55v62.17c0 2.94 1.66 3.86 6.28 3.86v2.57l-14.4.55v-8.63h-.19c-2.49 5.69-7.29 9.19-14.21 9.19-9.42 0-18.28-10.47-18.28-22.69s8.86-22.69 20.5-22.69c5.08 0 8.59 1.93 11.45 7.07h.18zm.37 39.21c0-12.68-4.24-19.29-11.26-19.29-7.94 0-11.26 8-11.26 19.29 0 13.69 4.06 19.84 10.61 19.84 7.2 0 11.9-7.44 11.9-19.84zM249.74 209.97v-3.17c5.36 0 7-.92 7-3.86V173.8c0-2.94-1.66-3.86-7-3.86v-3.14l15.69-.55V203c0 2.94 1.66 3.86 7 3.86v3.12zm15.51-57.5a5.17 5.17 0 11-5.17-5.14 5.14 5.14 0 015.16 5.14zM292.33 152.47v14.33h12.83v3.12h-12.83v33.25c0 3.86 2.4 4.78 5.08 4.78 3.6 0 6.74-2.57 6.74-9.92v-1.93h2.59v1.56c0 8.27-2.49 13.41-11.63 13.41-6.46 0-11.45-2.12-11.45-11.21v-29.94h-6.74v-3.12c8.58-.73 9.69-3.12 12.09-14.33z"/><path d="M158.41 39.12l18.37-30.11c2-3.25.9-7.08-2.41-8.52s-6.87.37-7.92 4l-9.73 33.86c-1.03 3.68-.31 4.01 1.69.77zm-43.81 19L84.11 40.5c-3.29-1.9-7.12-.73-8.5 2.6s.5 6.84 4.18 7.8l34.13 8.9c3.69 1 4 .19.71-1.71zm16.22-19c2 3.25 2.74 2.91 1.69-.74l-9.73-33.86c-1.05-3.66-4.62-5.47-7.92-4s-4.39 5.27-2.41 8.52zm82.82 4c-1.38-3.33-5.2-4.5-8.5-2.6l-30.52 17.59c-3.29 1.9-3 2.67.7 1.71l34.13-8.9c3.71-.98 5.59-4.49 4.21-7.82zm-49.69 14.55c-10.63-18.33-28-18.33-38.67 0l-38.67 66.65c-10.63 18.33-1.93 33.32 19.34 33.32h77.36c21.27 0 30-15 19.33-33.32zm-19.34 1a12.81 12.81 0 11-12.87 12.82 12.85 12.85 0 0112.9-12.84zm32 91.19h-64c-17.59 0-24.79-8.08-16-18l32-35.91c8.8-9.88 23.19-9.88 32 0l32 35.91c8.8 9.94 1.61 17.94-15.98 17.94z" fill="#d20000"/></svg>