<svg xmlns="http://www.w3.org/2000/svg" viewBox="0 0 270.82 47.76"><defs><style>.cls-1{fill:#0591b2;}.cls-2,.cls-3{fill:#3f3f46;}.cls-3{font-size:32px;font-family:Readex Pro;letter-spacing:-0.03em;}.cls-4{font-weight:400;fill:#0291b2;letter-spacing:-0.03em;}</style></defs><g id="Layer_2" data-name="Layer 2"><g id="Layer_1-2" data-name="Layer 1"><path class="cls-1" d="M10.81,6.28a4.43,4.43,0,0,1,.46.29c.2.11.39.24.58.37a5.68,5.68,0,0,1,.7.51l.54.42c.23.19.45.39.67.61a8.5,8.5,0,0,1,.74.73q.42.45.81.93c.21.25.39.48.57.72h0l.55.8a25.89,25.89,0,0,1,1.63,2.85c.15.31.31.64.45,1s.3.63.42,1,.25.59.38.88.27.69.4,1,.24.62.36.93c.19.53.39,1.05.57,1.56.09.26.18.51.28.75.18.51.36,1,.54,1.45s.38.91.56,1.34a4.82,4.82,0,0,0,.35.63c.1.21.19.4.3.6a6,6,0,0,0,.31.55c.1.18.21.35.32.52a5.66,5.66,0,0,0,.34.47,2.86,2.86,0,0,0,.35.43h0l.14.15a2.5,2.5,0,0,0,.34.31.28.28,0,0,0,.1.09,3.69,3.69,0,0,0,.4.29,3.85,3.85,0,0,0,1.18.5,2.53,2.53,0,0,0,.55.09h.45a4.69,4.69,0,0,0,.53,0l.69-.1a1.61,1.61,0,0,0,.36-.1,6,6,0,0,0,1.15-.45c.2-.09.39-.2.6-.31h0c.24-.14.49-.3.73-.47l.66-.47c.23-.17.47-.36.7-.56h0l-.95-14.78h0l-.15-2.09A10.3,10.3,0,0,0,21.17,0H10.37A10.19,10.19,0,0,0,2.14,4.05,18.06,18.06,0,0,1,9.92,5.81C10.23,6,10.52,6.12,10.81,6.28Z"/><path class="cls-2" d="M32.7,29l-.35.25c-.32.21-.6.39-.89.56l-.47.27h0l-.25.12a9.32,9.32,0,0,1-1.47.57l-.45.12c-.31.07-.59.12-.87.16a6.64,6.64,0,0,1-.77.05h-.6a5.69,5.69,0,0,1-.81-.13,5.16,5.16,0,0,1-1-.35,7.22,7.22,0,0,1-.78-.41c-.19-.12-.38-.25-.56-.39l-.21-.18a5.11,5.11,0,0,1-.48-.45L22.55,29c-.13-.13-.27-.3-.41-.47l-.07-.09c-.19-.25-.33-.44-.46-.65s-.24-.37-.36-.57a5.32,5.32,0,0,1-.37-.66c-.12-.21-.22-.42-.32-.64s-.24-.5-.35-.76v-.09c-.17-.41-.36-.84-.53-1.29s-.36-.94-.54-1.44c-.11-.27-.21-.54-.31-.82l-.46-1.08L18.23,20c-.1-.27-.21-.56-.33-.85l-.41-1.06-.35-.82c-.13-.32-.25-.59-.38-.85v-.1c-.13-.29-.27-.58-.41-.86a24.64,24.64,0,0,0-1.51-2.64c-.07-.12-.39-.56-.46-.67l-.07-.09c-.16-.21-.31-.41-.49-.62s-.49-.58-.73-.84a7.36,7.36,0,0,0-.63-.62l-.09-.09c-.18-.17-.35-.33-.54-.48L11.33,9a6.41,6.41,0,0,0-.52-.39l-.12-.08-.42-.26-.09-.06L9.88,8c-.31-.18-.57-.31-.84-.44A15.89,15.89,0,0,0,2.13,6.05L1,6a10.2,10.2,0,0,0-.41,7.56L5.15,27.44l1.44,4.32L7,32.91A10.33,10.33,0,0,0,16.77,40h5.65A10.32,10.32,0,0,0,32.74,29.68v-.11Z"/><text class="cls-3" transform="translate(43.01 31.31)">theme<tspan class="cls-4" x="94.56" y="0">boutique</tspan></text></g></g></svg>