<svg id="Isolation_Mode" data-name="Isolation Mode" xmlns="http://www.w3.org/2000/svg" viewBox="0 0 269.54 40"><defs><style>.cls-1{fill:#0591b2;}.cls-2{fill:#3f3f46;}.cls-3{fill:#0291b2;}</style></defs><path class="cls-1" d="M28,15.4c.16.09.31.19.46.29s.39.24.58.37a5.68,5.68,0,0,1,.7.51l.54.42c.23.19.45.39.67.61s.5.48.74.73.55.61.81.93.39.48.57.72h0l.55.8a26.85,26.85,0,0,1,1.63,2.85c.15.31.31.64.45,1s.3.63.42.95.25.59.38.88.27.69.4,1,.24.62.36.93c.19.53.39,1.05.57,1.56.09.26.18.51.28.75.18.51.36,1,.54,1.45s.38.91.56,1.34a4.82,4.82,0,0,0,.35.63c.1.21.19.4.3.6a6,6,0,0,0,.31.55c.1.18.21.35.32.52a5.66,5.66,0,0,0,.34.47,2.44,2.44,0,0,0,.35.43h0l.14.15a2,2,0,0,0,.34.31.22.22,0,0,0,.1.09,2.92,2.92,0,0,0,.4.29,3.85,3.85,0,0,0,1.18.5,2.53,2.53,0,0,0,.55.09h.45a2.35,2.35,0,0,0,.53,0l.69-.1a1.61,1.61,0,0,0,.36-.1,6.23,6.23,0,0,0,1.15-.45c.2-.09.39-.2.6-.31h0c.24-.14.49-.3.73-.47l.66-.47c.23-.17.47-.36.7-.56h0l-1-14.78h0l-.15-2.09a10.31,10.31,0,0,0-10.3-9.67H27.54a10.19,10.19,0,0,0-8.23,4.05,18.06,18.06,0,0,1,7.78,1.76C27.4,15.12,27.69,15.24,28,15.4Z" transform="translate(-17.17 -9.12)"/><path class="cls-2" d="M49.87,38.12l-.35.25c-.32.21-.6.39-.89.56l-.47.27h0l-.25.12a9.71,9.71,0,0,1-1.47.57L46,40c-.31.07-.59.12-.87.16a6.64,6.64,0,0,1-.77,0h-.6a5.47,5.47,0,0,1-.81-.13,4.94,4.94,0,0,1-1-.35,5.8,5.8,0,0,1-.78-.41,5.58,5.58,0,0,1-.56-.39l-.21-.18a5.11,5.11,0,0,1-.48-.45l-.19-.19c-.13-.13-.27-.3-.41-.47l-.07-.09c-.19-.25-.33-.44-.46-.65s-.24-.37-.36-.57a5.32,5.32,0,0,1-.37-.66c-.12-.21-.22-.42-.32-.64s-.24-.5-.35-.76v-.09c-.17-.41-.36-.84-.53-1.29s-.36-.94-.54-1.44c-.11-.27-.21-.54-.31-.82l-.46-1.08-.14-.44c-.1-.27-.21-.56-.33-.85l-.41-1.06-.35-.82c-.13-.32-.25-.59-.38-.85v-.1c-.13-.29-.27-.58-.41-.86A24.64,24.64,0,0,0,32,21.94c-.07-.12-.39-.56-.46-.67l-.07-.09c-.16-.21-.31-.41-.49-.62s-.49-.58-.73-.84-.41-.42-.63-.62L29.54,19c-.18-.17-.35-.33-.54-.48l-.5-.39a6.41,6.41,0,0,0-.52-.39l-.12-.08-.42-.26-.09-.06-.3-.19c-.31-.18-.57-.31-.84-.44a15.89,15.89,0,0,0-6.91-1.55l-1.18-.05a10.15,10.15,0,0,0-.41,7.56l4.61,13.88,1.44,4.32L24.14,42a10.31,10.31,0,0,0,9.8,7.09h5.65A10.32,10.32,0,0,0,49.91,38.8v-.11Z" transform="translate(-17.17 -9.12)"/><path class="cls-2" d="M61.07,26.83v-3.2H71.76v3.2Zm3.49,13.6V19.34h3.3V40.43Z" transform="translate(-17.17 -9.12)"/><path class="cls-2" d="M73.81,40.43V16.75h3.3V27.09l-.58.38a4.76,4.76,0,0,1,1.25-2.06A7.48,7.48,0,0,1,80,23.87a6.67,6.67,0,0,1,5.82.16,4.61,4.61,0,0,1,1.92,2.29,10,10,0,0,1,.64,3.87V40.43h-3.3v-10A6.28,6.28,0,0,0,84.69,28a2.66,2.66,0,0,0-1.18-1.38,3.74,3.74,0,0,0-2-.36,5,5,0,0,0-1.76.3,4.26,4.26,0,0,0-1.39.85,4.13,4.13,0,0,0-.93,1.26,3.69,3.69,0,0,0-.33,1.55V40.43h-3.3Z" transform="translate(-17.17 -9.12)"/><path class="cls-2" d="M99.73,40.75a9.39,9.39,0,0,1-4.59-1.1,8.17,8.17,0,0,1-3.14-3,8.47,8.47,0,0,1-1.13-4.41,9.76,9.76,0,0,1,.64-3.62,8.48,8.48,0,0,1,1.77-2.83A7.94,7.94,0,0,1,96,23.9a9,9,0,0,1,3.44-.65,7.35,7.35,0,0,1,3,.62,7.72,7.72,0,0,1,2.45,1.71,7.59,7.59,0,0,1,1.6,2.58,8.77,8.77,0,0,1,.53,3.25l0,1.4H93.3l-.74-2.62h11.62l-.48.54V30a3.7,3.7,0,0,0-.71-1.89,4.22,4.22,0,0,0-1.53-1.31,4.33,4.33,0,0,0-2-.48,6,6,0,0,0-2.91.65,4.22,4.22,0,0,0-1.79,1.92A7.14,7.14,0,0,0,94.13,32,6,6,0,0,0,94.87,35,5,5,0,0,0,97,37a7,7,0,0,0,5.42.29,8.18,8.18,0,0,0,2.32-1.51l1.66,2.34a7.4,7.4,0,0,1-1.87,1.34,11.53,11.53,0,0,1-2.33.92A9.39,9.39,0,0,1,99.73,40.75Z" transform="translate(-17.17 -9.12)"/><path class="cls-2" d="M109.62,40.43V23.63H113v3.58l-.61.39a5.37,5.37,0,0,1,.81-1.6,6.36,6.36,0,0,1,1.38-1.36,7.3,7.3,0,0,1,1.76-.95,5.59,5.59,0,0,1,1.94-.35,6.16,6.16,0,0,1,2.52.48,4.37,4.37,0,0,1,1.8,1.44,6.43,6.43,0,0,1,1,2.4l-.51-.13.22-.54a5.51,5.51,0,0,1,1-1.39,7.38,7.38,0,0,1,1.42-1.17,7.14,7.14,0,0,1,1.7-.8,5.74,5.74,0,0,1,1.76-.29,5.82,5.82,0,0,1,3.12.77,4.63,4.63,0,0,1,1.85,2.34,10.48,10.48,0,0,1,.63,3.9V40.43h-3.33V30.54a4.93,4.93,0,0,0-.82-3.15,3.08,3.08,0,0,0-2.54-1,4.44,4.44,0,0,0-1.68.31,4.1,4.1,0,0,0-1.36.84,4.2,4.2,0,0,0-.9,1.27,3.91,3.91,0,0,0-.32,1.58V40.43h-3.32V30.48a4.79,4.79,0,0,0-.85-3,3,3,0,0,0-2.45-1.06,4.49,4.49,0,0,0-3,1.14,3.71,3.71,0,0,0-.89,1.25,3.65,3.65,0,0,0-.32,1.55V40.43Z" transform="translate(-17.17 -9.12)"/><path class="cls-2" d="M146,40.75a9.41,9.41,0,0,1-4.59-1.1,8.14,8.14,0,0,1-3.13-3,8.47,8.47,0,0,1-1.14-4.41,9.76,9.76,0,0,1,.64-3.62,8.67,8.67,0,0,1,1.78-2.83,7.75,7.75,0,0,1,2.72-1.86,9,9,0,0,1,3.44-.65,7.38,7.38,0,0,1,3,.62,7.79,7.79,0,0,1,2.44,1.71,7.44,7.44,0,0,1,1.6,2.58,8.57,8.57,0,0,1,.53,3.25l0,1.4H139.6l-.74-2.62h11.62l-.48.54V30a3.69,3.69,0,0,0-.7-1.89,4.39,4.39,0,0,0-3.55-1.79,6,6,0,0,0-2.92.65A4.27,4.27,0,0,0,141,28.86a7.29,7.29,0,0,0-.61,3.12,6.11,6.11,0,0,0,.74,3.06,5,5,0,0,0,2.08,2,6.59,6.59,0,0,0,3.1.7,6.46,6.46,0,0,0,2.32-.41A8,8,0,0,0,151,35.82l1.67,2.34a7.58,7.58,0,0,1-1.87,1.34,11.86,11.86,0,0,1-2.34.92A9.33,9.33,0,0,1,146,40.75Z" transform="translate(-17.17 -9.12)"/><path class="cls-3" d="M165.26,40.75a7.23,7.23,0,0,1-2.17-.33,7.88,7.88,0,0,1-1.94-.92,6.08,6.08,0,0,1-1.45-1.29,3.9,3.9,0,0,1-.77-1.46l.93-.42-.1,4H156V16.75h3.91V27.44l-.67-.29a3.46,3.46,0,0,1,.7-1.46,6,6,0,0,1,1.38-1.24,7.19,7.19,0,0,1,1.82-.9,6.43,6.43,0,0,1,2-.34,7.11,7.11,0,0,1,4,1.14,7.88,7.88,0,0,1,2.75,3.1,9.75,9.75,0,0,1,1,4.53,9.94,9.94,0,0,1-1,4.51,7.65,7.65,0,0,1-2.74,3.12A7,7,0,0,1,165.26,40.75Zm-.8-3.46a4.26,4.26,0,0,0,2.4-.68,4.8,4.8,0,0,0,1.67-1.89,6,6,0,0,0,.61-2.74,6.14,6.14,0,0,0-.6-2.77,4.53,4.53,0,0,0-1.64-1.87,4.81,4.81,0,0,0-4.9,0,4.65,4.65,0,0,0-1.66,1.87,6,6,0,0,0-.61,2.77,5.91,5.91,0,0,0,.61,2.74A4.77,4.77,0,0,0,162,36.61,4.42,4.42,0,0,0,164.46,37.29Z" transform="translate(-17.17 -9.12)"/><path class="cls-3" d="M183.15,40.75a8.89,8.89,0,0,1-4.51-1.14,8.2,8.2,0,0,1-3.12-3.12,9.49,9.49,0,0,1,0-9,8.34,8.34,0,0,1,3.12-3.12,9.43,9.43,0,0,1,9,0,8.34,8.34,0,0,1,3.12,3.12,9.49,9.49,0,0,1,0,9,8.2,8.2,0,0,1-3.12,3.12A8.81,8.81,0,0,1,183.15,40.75Zm0-3.49a4.53,4.53,0,0,0,2.47-.69,4.79,4.79,0,0,0,1.71-1.88,5.6,5.6,0,0,0,.59-2.71,5.65,5.65,0,0,0-.59-2.73,4.79,4.79,0,0,0-1.71-1.88,4.69,4.69,0,0,0-2.47-.67,4.59,4.59,0,0,0-2.48.69A4.74,4.74,0,0,0,179,29.28a6.3,6.3,0,0,0,0,5.41,4.65,4.65,0,0,0,1.71,1.88A4.59,4.59,0,0,0,183.15,37.26Z" transform="translate(-17.17 -9.12)"/><path class="cls-3" d="M200.3,40.75a5.87,5.87,0,0,1-3.15-.83,5.57,5.57,0,0,1-2.05-2.34,8.3,8.3,0,0,1-.72-3.61V23.57h3.91v9.56a4.8,4.8,0,0,0,.94,3.14,3.22,3.22,0,0,0,2.64,1.15,4.11,4.11,0,0,0,1.52-.27,3.58,3.58,0,0,0,1.2-.77,3.46,3.46,0,0,0,.8-1.2,4,4,0,0,0,.29-1.5V23.57h3.9V40.43h-3.8l-.07-3.52.71-.38a5.61,5.61,0,0,1-1.3,2.14A6.76,6.76,0,0,1,203,40.19,6.47,6.47,0,0,1,200.3,40.75Z" transform="translate(-17.17 -9.12)"/><path class="cls-3" d="M211.79,27.21V23.57H222.7v3.64Zm3.33,13.22V19.28H219V40.43Z" transform="translate(-17.17 -9.12)"/><path class="cls-3" d="M227.12,20a2.63,2.63,0,0,1-1.84-.59,2.13,2.13,0,0,1-.66-1.68,2.18,2.18,0,0,1,.67-1.65,2.62,2.62,0,0,1,1.83-.62A2.68,2.68,0,0,1,229,16a2.16,2.16,0,0,1,.66,1.68,2.14,2.14,0,0,1-.68,1.63A2.5,2.5,0,0,1,227.12,20ZM225.2,40.43V23.57h3.9V40.43Z" transform="translate(-17.17 -9.12)"/><path class="cls-3" d="M245.07,47.47V36.4l.8.09a2.87,2.87,0,0,1-.54,1.52A5.48,5.48,0,0,1,244,39.39a7.15,7.15,0,0,1-1.9,1,6.37,6.37,0,0,1-2.16.37,7.26,7.26,0,0,1-4-1.14,7.85,7.85,0,0,1-2.8-3.12,9.7,9.7,0,0,1-1-4.51,9.84,9.84,0,0,1,1-4.51,8,8,0,0,1,2.77-3.12,7.45,7.45,0,0,1,6.34-.75,7.09,7.09,0,0,1,2,1,5.91,5.91,0,0,1,1.43,1.44,2.86,2.86,0,0,1,.53,1.61l-1,.1.07-4.26H249V47.47Zm-4.54-10.21a4.44,4.44,0,0,0,2.43-.67,4.66,4.66,0,0,0,1.65-1.86A6.09,6.09,0,0,0,245.2,32a6.27,6.27,0,0,0-.59-2.77A4.63,4.63,0,0,0,243,27.34a4.44,4.44,0,0,0-2.43-.67,4.38,4.38,0,0,0-2.44.69,4.85,4.85,0,0,0-1.66,1.89,6.44,6.44,0,0,0,0,5.47,4.72,4.72,0,0,0,1.66,1.87A4.45,4.45,0,0,0,240.53,37.26Z" transform="translate(-17.17 -9.12)"/><path class="cls-3" d="M258.48,40.75a5.82,5.82,0,0,1-3.15-.83,5.5,5.5,0,0,1-2.05-2.34,8.3,8.3,0,0,1-.72-3.61V23.57h3.9v9.56a4.8,4.8,0,0,0,1,3.14,3.22,3.22,0,0,0,2.64,1.15,4.15,4.15,0,0,0,1.52-.27,3.58,3.58,0,0,0,1.2-.77,3.46,3.46,0,0,0,.8-1.2,4,4,0,0,0,.29-1.5V23.57h3.9V40.43H264l-.06-3.52.7-.38a5.61,5.61,0,0,1-1.3,2.14,6.61,6.61,0,0,1-2.15,1.52A6.51,6.51,0,0,1,258.48,40.75Z" transform="translate(-17.17 -9.12)"/><path class="cls-3" d="M279.34,40.75a9.76,9.76,0,0,1-4.69-1.1,8,8,0,0,1-3.16-3,8.64,8.64,0,0,1-1.14-4.47,9.71,9.71,0,0,1,.64-3.61,8.58,8.58,0,0,1,1.79-2.84,8,8,0,0,1,2.74-1.85,8.86,8.86,0,0,1,3.44-.66,7.63,7.63,0,0,1,3.12.64,7.91,7.91,0,0,1,2.48,1.75,7.45,7.45,0,0,1,1.61,2.62,8.92,8.92,0,0,1,.53,3.31l0,1.41H273l-.77-2.72h11.11l-.49.54V30a3.34,3.34,0,0,0-.64-1.71,3.82,3.82,0,0,0-1.39-1.19,4,4,0,0,0-1.87-.43,5.59,5.59,0,0,0-2.66.59A3.87,3.87,0,0,0,274.69,29a6.33,6.33,0,0,0-.56,2.84,5.78,5.78,0,0,0,.68,2.85,4.79,4.79,0,0,0,2,1.89,6.32,6.32,0,0,0,3,.67,6.22,6.22,0,0,0,2.19-.38,7.73,7.73,0,0,0,2.16-1.38L286,38.19a8.41,8.41,0,0,1-2,1.36,11.56,11.56,0,0,1-2.32.88A9.54,9.54,0,0,1,279.34,40.75Z" transform="translate(-17.17 -9.12)"/></svg>